<svg xmlns="http://www.w3.org/2000/svg" viewBox="162 60 252 268" fill="none" aria-hidden="true">
  <defs>
    <style>
      .mg0 { fill: url(#mg-lg); }
      .mg1 { fill: url(#mg-lg1); }
      .mg2 { fill: url(#mg-lg2); }
      .mg3 { fill: url(#mg-lg3); }
      .mg4 { fill: url(#mg-lg4); }
      .mg5 { fill: url(#mg-lg5); }
    </style>
    <linearGradient id="mg-lg" x1="172.8" y1="178.14" x2="281.95" y2="241.07" gradientUnits="userSpaceOnUse">
      <stop offset="0" stop-color="#ffd900"/>
      <stop offset=".27" stop-color="#fac119"/>
      <stop offset="1" stop-color="#ef845c"/>
    </linearGradient>
    <linearGradient id="mg-lg1" x1="213.2" y1="300.07" x2="271.24" y2="266.56" gradientUnits="userSpaceOnUse">
      <stop offset="0" stop-color="#f39737"/>
      <stop offset=".68" stop-color="#ed705d"/>
      <stop offset="1" stop-color="#e95377"/>
    </linearGradient>
    <linearGradient id="mg-lg2" x1="302.6" y1="236.13" x2="409.7" y2="169.77" gradientUnits="userSpaceOnUse">
      <stop offset="0" stop-color="#00b1a9"/>
      <stop offset="1" stop-color="#70529f"/>
    </linearGradient>
    <linearGradient id="mg-lg3" x1="309.69" y1="270.25" x2="368.61" y2="304.27" gradientUnits="userSpaceOnUse">
      <stop offset="0" stop-color="#70529f"/>
      <stop offset=".02" stop-color="#6d569f"/>
      <stop offset=".16" stop-color="#5f70a5"/>
      <stop offset=".28" stop-color="#5680a8"/>
      <stop offset=".38" stop-color="#5386aa"/>
      <stop offset=".99" stop-color="#00b1a9"/>
    </linearGradient>
    <linearGradient id="mg-lg4" x1="251.84" y1="168.96" x2="284.22" y2="168.96" gradientUnits="userSpaceOnUse">
      <stop offset="0" stop-color="#ef845c"/>
      <stop offset=".21" stop-color="#ef8757"/>
      <stop offset=".42" stop-color="#f1924b"/>
      <stop offset=".63" stop-color="#f5a537"/>
      <stop offset=".83" stop-color="#fabf1b"/>
      <stop offset="1" stop-color="#ffd900"/>
    </linearGradient>
    <linearGradient id="mg-lg5" x1="290.32" y1="168.96" x2="322.7" y2="168.96" gradientUnits="userSpaceOnUse">
      <stop offset="0" stop-color="#00b1a9"/>
      <stop offset=".23" stop-color="#2c8ba5"/>
      <stop offset=".46" stop-color="#516ca1"/>
      <stop offset=".64" stop-color="#67599f"/>
      <stop offset=".76" stop-color="#70529f"/>
    </linearGradient>
  </defs>
  <path class="mg0" d="M284.49,240.49s2.11-66.77-73.63-97.65c-8.44-3.69-19.53-9.5-40.12-6.33-7.39,1.58-13.2,7.92-11.88,15.04.13,2.11.79,9.63,8.71,20.85,7.92,11.22,8.84,17.68,9.64,25.07.79,7.39-2.25,37.74,55.03,46.58,0,0,53.14,7.13,42.23,51.53,6.56-13.19,11.19-31.17,10.02-55.1Z"/>
  <path class="mg1" d="M232.23,244.06s-24.55,12.45-26.31,26.17c-1.76,13.72,1.94,18.47,7.74,25.86,5.81,7.39,8.97,10.73,11.61,23.75,1.58,7.92,10.38,10.38,19.71,6.69,5.58-2.21,19.69-11.24,29.48-30.94,10.9-44.4-42.23-51.53-42.23-51.53Z"/>
  <path class="mg2" d="M290.05,240.49s-2.11-66.77,73.63-97.65c8.44-3.69,19.53-9.5,40.11-6.33,7.39,1.58,13.2,7.92,11.88,15.04-.13,2.11-.79,9.63-8.71,20.85-7.92,11.22-8.84,17.68-9.63,25.07-.79,7.39,2.24,37.74-55.03,46.58,0,0-53.13,7.13-42.23,51.53-6.56-13.19-11.19-31.17-10.02-55.1Z"/>
  <path class="mg3" d="M342.31,244.06s24.55,12.45,26.31,26.17c1.76,13.72-1.94,18.47-7.74,25.86-5.81,7.39-8.97,10.73-11.61,23.75-1.59,7.92-10.38,10.38-19.71,6.69-5.59-2.21-19.69-11.24-29.48-30.94-10.9-44.4,42.23-51.53,42.23-51.53Z"/>
  <path class="mg4" d="M260.56,154.63c16.19,11.44,23.66,39.85,23.66,39.85-2.73-30.88-21.73-47.95-25.69-50.23-3.96-2.29-6.25.97-6.25.97-2.64,5.98,7.13,8.71,8.27,9.41Z"/>
  <path class="mg5" d="M313.98,154.63c1.14-.7,10.91-3.43,8.27-9.41,0,0-2.29-3.25-6.25-.97-3.96,2.29-22.96,19.35-25.69,50.23,0,0,7.48-28.42,23.67-39.85Z"/>
</svg>
